<svg width="102" height="32" viewBox="0 0 102 32" fill="none" xmlns="http://www.w3.org/2000/svg">
<path d="M7.514 22.266C6.99133 22.266 6.45467 22.2053 5.904 22.084C5.35333 21.9627 4.87733 21.776 4.476 21.524L4.56 19.452H5.862L6.142 21.174C6.35667 21.258 6.57133 21.3233 6.786 21.37C7.00067 21.4073 7.23867 21.426 7.5 21.426C8.004 21.426 8.38667 21.3 8.648 21.048C8.90933 20.7867 9.04 20.4693 9.04 20.096C9.04 19.7227 8.942 19.4333 8.746 19.228C8.55933 19.0227 8.256 18.8267 7.836 18.64L7.234 18.374C6.41267 17.9913 5.77333 17.5667 5.316 17.1C4.868 16.6333 4.644 16.0127 4.644 15.238C4.644 14.398 4.95667 13.74 5.582 13.264C6.21667 12.7787 7.06133 12.536 8.116 12.536C8.62 12.536 9.10067 12.6013 9.558 12.732C10.0247 12.8533 10.426 13.026 10.762 13.25L10.65 15.21H9.362L9.096 13.558C8.94667 13.502 8.79733 13.46 8.648 13.432C8.49867 13.3947 8.33533 13.376 8.158 13.376C7.75667 13.376 7.416 13.4927 7.136 13.726C6.856 13.9593 6.716 14.2673 6.716 14.65C6.716 15.0233 6.82333 15.322 7.038 15.546C7.262 15.7607 7.57933 15.9613 7.99 16.148L8.648 16.442C9.53467 16.8433 10.174 17.268 10.566 17.716C10.9673 18.1547 11.168 18.7287 11.168 19.438C11.168 20.2593 10.8553 20.936 10.23 21.468C9.614 22 8.70867 22.266 7.514 22.266ZM11.6218 15.406L11.6778 12.802H19.8958L19.9378 15.406H18.7758L18.5238 13.586H16.9838C16.9745 14.1647 16.9651 14.7527 16.9558 15.35C16.9558 15.938 16.9558 16.5353 16.9558 17.142V17.646C16.9558 18.2247 16.9558 18.8033 16.9558 19.382C16.9651 19.9607 16.9745 20.5393 16.9838 21.118L18.1878 21.244V22H13.3858V21.244L14.5758 21.118C14.5945 20.5487 14.6038 19.9747 14.6038 19.396C14.6038 18.8173 14.6038 18.2387 14.6038 17.66V17.142C14.6038 16.554 14.6038 15.966 14.6038 15.378C14.6038 14.7807 14.5945 14.1833 14.5758 13.586H13.0498L12.7838 15.406H11.6218ZM23.1948 14.944L22.0328 18.514H24.3288L23.1948 14.944ZM19.2608 22V21.244L20.3948 21.076L23.2368 12.788H24.6788L27.5488 21.174L28.4028 21.272V22H24.0768V21.272L25.1548 21.132L24.5808 19.326H21.7668L21.2068 21.076L22.2708 21.244V22H19.2608ZM32.979 13.614H32.419C32.4097 14.1927 32.4003 14.7713 32.391 15.35C32.391 15.9193 32.391 16.4653 32.391 16.988H32.923C33.3897 16.988 33.7537 16.9087 34.015 16.75C34.2763 16.5913 34.463 16.3813 34.575 16.12C34.687 15.8587 34.743 15.5787 34.743 15.28C34.743 14.1693 34.155 13.614 32.979 13.614ZM29.003 13.558V12.802H33.553C34.6543 12.802 35.499 13.0073 36.087 13.418C36.6843 13.8287 36.983 14.398 36.983 15.126C36.983 15.434 36.9037 15.742 36.745 16.05C36.5863 16.3487 36.325 16.6147 35.961 16.848C35.597 17.072 35.1023 17.2353 34.477 17.338C35.009 17.4033 35.4243 17.534 35.723 17.73C36.0217 17.9167 36.2457 18.164 36.395 18.472C36.5443 18.7707 36.6517 19.1393 36.717 19.578L36.983 21.132L38.047 21.244V22C37.823 22.0467 37.6363 22.084 37.487 22.112C37.3377 22.1493 37.1883 22.1727 37.039 22.182C36.899 22.1913 36.7217 22.196 36.507 22.196C35.9097 22.196 35.4383 22.0933 35.093 21.888C34.757 21.6827 34.5517 21.3093 34.477 20.768L34.225 19.144C34.1597 18.6773 34.0243 18.332 33.819 18.108C33.623 17.884 33.315 17.772 32.895 17.772H32.391C32.391 18.3693 32.391 18.9433 32.391 19.494C32.4003 20.0447 32.4097 20.5907 32.419 21.132L33.511 21.244V22H29.003V21.244L30.053 21.132C30.0717 20.5627 30.081 19.9887 30.081 19.41C30.081 18.8313 30.081 18.248 30.081 17.66V17.142C30.081 16.5633 30.081 15.9847 30.081 15.406C30.081 14.818 30.0717 14.2393 30.053 13.67L29.003 13.558Z" fill="#F93F23"/>
<path d="M56.992 13.558V12.802H60.24V13.558L58.91 13.726L57.062 15.938L59.82 21.146L60.674 21.244V22H56.628V21.244L57.3 21.174L55.578 17.688L54.78 18.64C54.78 19.0413 54.78 19.452 54.78 19.872C54.7893 20.292 54.7987 20.712 54.808 21.132L55.718 21.244V22H51.462V21.244L52.512 21.132C52.5307 20.5627 52.54 19.9887 52.54 19.41C52.54 18.8313 52.54 18.248 52.54 17.66V17.142C52.54 16.5633 52.54 15.9847 52.54 15.406C52.54 14.818 52.5307 14.2393 52.512 13.67L51.462 13.558V12.802H55.872V13.558L54.808 13.67C54.7987 14.2393 54.7893 14.8133 54.78 15.392C54.78 15.9707 54.78 16.554 54.78 17.142V17.604L57.916 13.726L56.992 13.558ZM61.168 22V21.342L61.924 21.174C61.9334 20.838 61.938 20.474 61.938 20.082C61.938 19.69 61.938 19.3493 61.938 19.06V18.388C61.938 18.0053 61.9334 17.688 61.924 17.436C61.924 17.1747 61.9147 16.904 61.896 16.624L61.028 16.498V15.952L63.968 15.014L64.206 15.168L64.164 17.198V19.06C64.164 19.3493 64.164 19.6947 64.164 20.096C64.164 20.488 64.1687 20.8567 64.178 21.202L64.878 21.342V22H61.168ZM63.03 13.978C62.7034 13.978 62.4234 13.8753 62.19 13.67C61.9567 13.4553 61.84 13.1893 61.84 12.872C61.84 12.5453 61.9567 12.2793 62.19 12.074C62.4234 11.8593 62.7034 11.752 63.03 11.752C63.3567 11.752 63.6367 11.8593 63.87 12.074C64.1034 12.2793 64.22 12.5453 64.22 12.872C64.22 13.1893 64.1034 13.4553 63.87 13.67C63.6367 13.8753 63.3567 13.978 63.03 13.978ZM68.2297 22.21C67.6044 22.21 67.1144 22.0607 66.7597 21.762C66.4051 21.454 66.2277 20.9547 66.2277 20.264C66.2277 20.0213 66.2277 19.7973 66.2277 19.592C66.2371 19.3773 66.2417 19.1347 66.2417 18.864V16.19H65.3317V15.364L66.3677 15.224L67.0677 13.264H68.4957L68.4677 15.238H69.9377V16.19H68.4677V20.11C68.4677 20.4367 68.5331 20.6793 68.6637 20.838C68.8037 20.9873 68.9764 21.062 69.1817 21.062C69.4244 21.062 69.6764 20.9593 69.9377 20.754L70.2877 21.09C70.1011 21.4447 69.8397 21.72 69.5037 21.916C69.1771 22.112 68.7524 22.21 68.2297 22.21ZM74.0186 22.21C73.384 22.21 72.8006 22.0793 72.2686 21.818C71.746 21.5473 71.326 21.146 71.0086 20.614C70.6913 20.082 70.5326 19.424 70.5326 18.64C70.5326 17.8747 70.7006 17.2213 71.0366 16.68C71.382 16.1387 71.8393 15.728 72.4086 15.448C72.9873 15.1587 73.622 15.014 74.3126 15.014C74.8073 15.014 75.246 15.1073 75.6286 15.294C76.0113 15.4807 76.3146 15.728 76.5386 16.036C76.772 16.344 76.9026 16.6847 76.9306 17.058C76.7813 17.5433 76.464 17.786 75.9786 17.786C75.708 17.786 75.47 17.688 75.2646 17.492C75.0593 17.296 74.9426 16.9507 74.9146 16.456L74.8166 15.756C74.7793 15.7467 74.7373 15.742 74.6906 15.742C74.644 15.742 74.5973 15.742 74.5506 15.742C74.2893 15.742 74.028 15.8307 73.7666 16.008C73.5053 16.1853 73.2906 16.4653 73.1226 16.848C72.9546 17.2307 72.8706 17.7393 72.8706 18.374C72.8706 19.1767 73.048 19.7973 73.4026 20.236C73.7666 20.6653 74.2426 20.88 74.8306 20.88C75.1666 20.88 75.4606 20.81 75.7126 20.67C75.9646 20.5207 76.1933 20.3293 76.3986 20.096L76.8886 20.53C76.618 21.0993 76.2353 21.524 75.7406 21.804C75.2553 22.0747 74.6813 22.21 74.0186 22.21ZM77.3686 22V21.342L78.1246 21.174C78.1339 20.838 78.1386 20.474 78.1386 20.082C78.1386 19.69 78.1386 19.3493 78.1386 19.06V13.194L77.2706 13.054V12.466L80.1686 11.836L80.3926 11.976L80.3366 13.936V16.19C80.7099 15.7513 81.0692 15.448 81.4146 15.28C81.7692 15.1027 82.1519 15.014 82.5626 15.014C83.1786 15.014 83.6732 15.2147 84.0466 15.616C84.4199 16.0173 84.6066 16.6193 84.6066 17.422V19.06C84.6066 19.368 84.6066 19.718 84.6066 20.11C84.6066 20.4927 84.6112 20.8567 84.6206 21.202L85.3206 21.342V22H81.6386V21.342L82.3666 21.188C82.3759 20.8427 82.3806 20.4787 82.3806 20.096C82.3806 19.704 82.3806 19.3587 82.3806 19.06V17.59C82.3806 17.1327 82.3246 16.8153 82.2126 16.638C82.1099 16.4607 81.9139 16.372 81.6246 16.372C81.4379 16.372 81.2372 16.428 81.0226 16.54C80.8079 16.652 80.5932 16.8107 80.3786 17.016V19.06C80.3786 19.3493 80.3786 19.6947 80.3786 20.096C80.3786 20.488 80.3832 20.8567 80.3926 21.202L81.0506 21.342V22H77.3686ZM89.4812 15.742C89.2199 15.742 88.9772 15.9053 88.7532 16.232C88.5385 16.5493 88.4172 17.1373 88.3892 17.996H89.5792C89.9152 17.996 90.1392 17.9307 90.2512 17.8C90.3725 17.66 90.4332 17.4313 90.4332 17.114C90.4332 16.6473 90.3399 16.302 90.1532 16.078C89.9665 15.854 89.7425 15.742 89.4812 15.742ZM89.5092 22.21C88.8279 22.21 88.2259 22.07 87.7032 21.79C87.1805 21.5007 86.7699 21.09 86.4712 20.558C86.1725 20.0167 86.0232 19.3727 86.0232 18.626C86.0232 17.842 86.1959 17.184 86.5412 16.652C86.8959 16.1107 87.3485 15.7047 87.8992 15.434C88.4499 15.154 89.0239 15.014 89.6212 15.014C90.2372 15.014 90.7599 15.1447 91.1892 15.406C91.6279 15.6673 91.9592 16.022 92.1832 16.47C92.4072 16.9087 92.5192 17.4127 92.5192 17.982C92.5192 18.2527 92.4912 18.5 92.4352 18.724H88.3892C88.4359 19.4613 88.6365 20.0073 88.9912 20.362C89.3552 20.7073 89.7799 20.88 90.2652 20.88C90.6479 20.88 90.9745 20.81 91.2452 20.67C91.5159 20.5207 91.7539 20.3387 91.9592 20.124L92.4492 20.572C92.1599 21.1227 91.7679 21.5333 91.2732 21.804C90.7785 22.0747 90.1905 22.21 89.5092 22.21ZM93.31 22V21.342L94.066 21.174C94.0753 20.838 94.08 20.474 94.08 20.082C94.08 19.69 94.08 19.3493 94.08 19.06V18.248C94.08 17.8653 94.0753 17.5713 94.066 17.366C94.066 17.1513 94.0566 16.904 94.038 16.624L93.184 16.498V15.952L95.942 15.014L96.194 15.168L96.278 16.176C96.642 15.7467 97.0013 15.448 97.356 15.28C97.72 15.1027 98.1073 15.014 98.518 15.014C99.1246 15.014 99.61 15.2147 99.974 15.616C100.347 16.0173 100.534 16.6193 100.534 17.422V19.06C100.534 19.368 100.534 19.718 100.534 20.11C100.534 20.4927 100.539 20.8567 100.548 21.202L101.248 21.342V22H97.552V21.342L98.28 21.188C98.2893 20.8427 98.294 20.4787 98.294 20.096C98.294 19.704 98.294 19.3587 98.294 19.06V17.59C98.294 17.142 98.2333 16.8293 98.112 16.652C97.9906 16.4653 97.7946 16.372 97.524 16.372C97.16 16.372 96.7586 16.54 96.32 16.876V19.06C96.32 19.3493 96.32 19.6947 96.32 20.096C96.32 20.488 96.3246 20.8567 96.334 21.202L96.992 21.342V22H93.31Z" fill="#F93F23"/>
<path d="M46.45 11.22L36.28 12.7L43.64 19.87L41.9 30L51 25.22V2L46.45 11.22Z" fill="#F93F23"/>
</svg>
