<svg height="50" width="122" xmlns="http://www.w3.org/2000/svg"><path d="M20.333 30.417c-.583 0-.916-.25-1.083-.584v-8.916c.333-.25.75-.417 1.25-.417 1.75 0 2.167 2.25 2.167 4.75 0 3.75-1.084 5.167-2.334 5.167zm2.084-12a3.995 3.995 0 0 0-3.167 1.5l-.083-1.25h-4.584V38h4.75v-6.417c.667.584 1.584.834 2.584.834 3.166 0 5.5-3 5.5-7-.084-3.75-1.667-7-5-7zm52.5.333h4.666v13.333h-4.666zm-1.25 2.5c0 1.583-.917 2.583-2.334 2.583-1.416 0-2.166-1-2.166-2 0-.333.083-1 .416-1.5-.583-.333-2.25.334-2.833 2.25v9.5h-4.667V18.75h4.584L66.75 21c.833-1.583 2.167-2.5 3.75-2.5 2.083-.083 3.167 1.25 3.167 2.75zM55.5 18.75h4.75v13.333H55.5v-3c-.5 1.334-1.583 3.25-4.083 3.25s-3.75-2-3.75-4.083v-7.583c0-1-.25-1.5-.667-1.667v-.25h5.333V27c0 2 .917 2.167 1.417 2.167.75 0 1.333-.667 1.667-1.584.083-2.916.083-8.833.083-8.833zm65.667 9c0 2.667-2.417 4.583-5.834 4.583-1.833 0-3.583-.916-4.5-.916-.75 0-.916.166-.916.166l-.167-3.666h.417c1.916 2.5 3.166 3.583 5.166 3.583 1.25 0 2.334-.667 2.334-1.667 0-1.166-1.084-1.416-2.584-1.833-4.083-1.083-5.25-2.833-5.25-5.167 0-2.666 2.334-4.416 5.167-4.416 1 0 1.917.166 2.583.416.417.167 1.667.667 2.584.667v3.583h-.417c-1.583-2.333-3-3.833-4.75-3.833-1.083 0-1.75.667-1.75 1.583 0 1.084 1 1.417 2.833 1.917 3.417 1 5.084 2.25 5.084 5zm-17.584-9h4.75v13.333h-4.75v-3c-.5 1.334-1.583 3.25-4.083 3.25s-3.75-2-3.75-4.083v-7.583c0-1-.25-1.5-.667-1.667v-.25h5.334V27c0 2 .916 2.167 1.416 2.167.75 0 1.334-.667 1.667-1.584.083-2.916.083-8.833.083-8.833zM87.667 31.583c-1.334 0-1.834-1.833-1.834-6.166 0-4.334.5-6.167 1.834-6.167 1.333 0 1.833 1.833 1.833 6.167 0 4.333-.5 6.166-1.833 6.166zm0-13.166c-4.25 0-6.75 3.083-6.75 7 0 3.833 2.5 7 6.75 7s6.75-3.084 6.75-7c0-3.917-2.5-7-6.75-7zm-59 .333h4.666v13.333h-4.75zm17.583 8.917l.333.083c-.333 1.75-2 4.667-5.666 4.667-4.167 0-6.167-3.25-6.167-7 0-4 2.667-7 6.583-7 2.917 0 4.75 1.583 4.75 3.25 0 1-.75 1.833-1.916 1.833-.834 0-1.667-.75-1.667-1.75s.583-1.5 1.25-1.583c-.25-.417-.667-.75-1.417-.75-1.25 0-2.75 1.583-2.75 5.416 0 2.5 1.25 4.75 3.75 4.75 2 0 2.917-1.916 2.917-1.916zm28.667-12.5c0-1.167 1-2.167 2.333-2.167s2.333.917 2.333 2.167c0 1.166-1 2.166-2.333 2.166-1.25-.083-2.333-1-2.333-2.166zm-46.167 0c0-1.167 1-2.167 2.333-2.167 1.167 0 2.25.917 2.25 2.167s-1 2.166-2.333 2.166c-1.25-.083-2.25-1-2.25-2.166zm-23 10.5c-.417-2.917.417-6.084 1.583-6.084C8.5 19.583 9 22 9 24.75zM7.333 18.5C3 18.5.5 21.75.5 25.5c0 2.25.917 4.25 2.5 5.583C4 32 5.417 32.5 7.083 32.5c4.334 0 5.834-3.583 6.084-4.667v-.083l-.334-.083s-1.5 1.916-3.666 1.916c-.667 0-1.334-.25-1.917-.666-.667-.5-1.083-1.334-1.25-2.167l7.417-2.083v-.084c-.167-3.5-2.75-6.083-6.084-6.083z" fill="#eb0000"/></svg>